<svg width="128" height="128" viewBox="0 0 128 128" fill="none" xmlns="http://www.w3.org/2000/svg">
<rect width="128" height="128" fill="url(#paint0_radial_3248_673)"/>
<path d="M97.0357 59.888C96.002 56.2817 92.126 54.7362 85.4075 55.2514L83.0819 55.509C78.9474 55.7666 73.521 56.2817 67.8361 57.0545C86.6995 44.9478 118.483 28.7197 118.742 28.7197L117.708 24.5983C117.191 22.5376 114.607 21.7649 112.281 22.7952C106.08 25.8863 75.5882 42.3719 60.8592 51.9027C71.4537 27.6894 81.2731 7.85507 81.2731 7.33989L76.8802 6.30954C74.813 5.79436 71.9705 7.0823 70.9369 9.4006C67.3193 16.8707 59.5672 33.6139 51.0399 52.6755C46.1302 44.9478 39.9286 38.5081 36.3109 34.9019C34.7605 33.3563 31.9181 33.8715 30.1092 35.6746L26.4916 39.2809C26.4916 39.2809 36.8277 48.5541 43.5462 59.3728C33.7269 60.6607 24.4244 61.9487 17.4475 63.4942C14.8635 64.0094 13.0546 66.3277 13.0546 68.646L13.5714 73.2826C18.9979 71.7371 27.2668 70.4491 36.5693 69.1612C28.3004 75.3433 19.7731 82.5558 10.9874 90.541C8.92018 92.3441 8.66178 94.92 9.95379 96.4656L12.7962 99.5566C22.6155 90.541 32.1765 82.5558 41.479 75.6009C35.0189 91.3138 29.334 106.512 26.2332 118.103L25.9748 118.618C24.9412 122.224 28.8172 124.285 32.1765 121.967L32.6933 121.709C33.7269 120.936 61.376 102.133 76.8802 88.2227C92.9012 73.7978 98.8445 65.5549 97.0357 59.888ZM71.4537 82.0406C62.1512 90.2834 47.9391 100.845 38.3781 107.799C42.5126 95.6928 48.1975 81.2678 54.1407 67.1005C64.7353 66.0701 74.813 65.0397 81.7899 64.5246L84.1155 64.267C86.1827 64.0094 87.4747 64.267 87.9915 64.267C87.4747 65.5549 84.8907 70.1915 71.4537 82.0406Z" fill="white"/>
<defs>
<radialGradient id="paint0_radial_3248_673" cx="0" cy="0" r="1" gradientUnits="userSpaceOnUse" gradientTransform="translate(128.432 132) rotate(-140.779) scale(132.847 198.328)">
<stop stop-color="#FF41A6"/>
<stop offset="0.33605" stop-color="#B860BF"/>
<stop offset="1" stop-color="#0070E0"/>
</radialGradient>
</defs>
</svg>
